FILE "CyberSled (Japan) (Track 01).bin" BINARY
  TRACK 01 MODE2/2352
    INDEX 01 00:00:00
  TRACK 02 AUDIO
    INDEX 00 10:26:56
    INDEX 01 10:28:56
  TRACK 03 AUDIO
    INDEX 00 10:33:20
    INDEX 01 10:35:20
  TRACK 04 AUDIO
    INDEX 00 10:51:51
    INDEX 01 10:53:51
  TRACK 05 AUDIO
    INDEX 00 10:57:71
    INDEX 01 10:59:71
  TRACK 06 AUDIO
    INDEX 00 11:04:31
    INDEX 01 11:06:31
  TRACK 07 AUDIO
    INDEX 00 11:10:53
    INDEX 01 11:12:53
  TRACK 08 AUDIO
    INDEX 00 11:17:08
    INDEX 01 11:19:08
  TRACK 09 AUDIO
    INDEX 00 11:23:21
    INDEX 01 11:25:21
  TRACK 10 AUDIO
    INDEX 00 11:29:48
    INDEX 01 11:31:48
  TRACK 11 AUDIO
    INDEX 00 11:36:03
    INDEX 01 11:38:03
  TRACK 12 AUDIO
    INDEX 00 11:42:39
    INDEX 01 11:44:39
  TRACK 13 AUDIO
    INDEX 00 11:48:52
    INDEX 01 11:50:52
  TRACK 14 AUDIO
    INDEX 00 11:55:02
    INDEX 01 11:57:02
  TRACK 15 AUDIO
    INDEX 00 12:01:27
    INDEX 01 12:03:27
  TRACK 16 AUDIO
    INDEX 00 12:07:60
    INDEX 01 12:09:60
  TRACK 17 AUDIO
    INDEX 00 12:14:02
    INDEX 01 12:16:02
  TRACK 18 AUDIO
    INDEX 00 12:20:34
    INDEX 01 12:22:34
  TRACK 19 AUDIO
    INDEX 00 12:26:61
    INDEX 01 12:28:61
  TRACK 20 AUDIO
    INDEX 00 12:33:27
    INDEX 01 12:35:27
  TRACK 21 AUDIO
    INDEX 00 12:39:49
    INDEX 01 12:41:49
  TRACK 22 AUDIO
    INDEX 00 12:46:06
    INDEX 01 12:48:06
  TRACK 23 AUDIO
    INDEX 00 12:52:30
    INDEX 01 12:54:30
  TRACK 24 AUDIO
    INDEX 00 12:58:65
    INDEX 01 13:00:65
  TRACK 25 AUDIO
    INDEX 00 13:05:15
    INDEX 01 13:07:15
  TRACK 26 AUDIO
    INDEX 00 13:11:48
    INDEX 01 13:13:48
  TRACK 27 AUDIO
    INDEX 00 13:17:69
    INDEX 01 13:19:69
  TRACK 28 AUDIO
    INDEX 00 13:24:34
    INDEX 01 13:26:34
  TRACK 29 AUDIO
    INDEX 00 13:35:23
    INDEX 01 13:37:23
  TRACK 30 AUDIO
    INDEX 00 13:45:56
    INDEX 01 13:47:56
  TRACK 31 AUDIO
    INDEX 00 13:56:18
    INDEX 01 13:58:18
  TRACK 32 AUDIO
    INDEX 00 14:06:58
    INDEX 01 14:08:58
  TRACK 33 AUDIO
    INDEX 00 14:17:21
    INDEX 01 14:19:21
  TRACK 34 AUDIO
    INDEX 00 14:28:13
    INDEX 01 14:30:13
  TRACK 35 AUDIO
    INDEX 00 14:38:59
    INDEX 01 14:40:59
  TRACK 36 AUDIO
    INDEX 00 14:49:25
    INDEX 01 14:51:25
  TRACK 37 AUDIO
    INDEX 00 15:00:26
    INDEX 01 15:02:26
  TRACK 38 AUDIO
    INDEX 00 15:11:23
    INDEX 01 15:13:23
  TRACK 39 AUDIO
    INDEX 00 15:21:71
    INDEX 01 15:23:71
  TRACK 40 AUDIO
    INDEX 00 15:32:63
    INDEX 01 15:34:63
  TRACK 41 AUDIO
    INDEX 00 19:31:72
    INDEX 01 19:33:72
  TRACK 42 AUDIO
    INDEX 00 23:28:08
    INDEX 01 23:30:08
  TRACK 43 AUDIO
    INDEX 00 26:45:66
    INDEX 01 26:47:66
  TRACK 44 AUDIO
    INDEX 00 31:31:37
    INDEX 01 31:33:37
  TRACK 45 AUDIO
    INDEX 00 35:12:56
    INDEX 01 35:14:56
  TRACK 46 AUDIO
    INDEX 00 38:02:53
    INDEX 01 38:04:53
  TRACK 47 AUDIO
    INDEX 00 42:12:27
    INDEX 01 42:14:27
  TRACK 48 AUDIO
    INDEX 00 45:49:23
    INDEX 01 45:51:23
REM LEADOUT 49:19:22
